# xmcd
#
# Track frame offsets: 
#        150
#        17977
#        46264
#
# Disc length: 1006 seconds
#
# Revision: 5
# Processed by: cddbd v1.5.2PL0 Copyright (c) Steve Scherf et al.
# Submitted via: ExactAudioCopy v0.95b3
#
DISCID=1d03ec03
DTITLE=MR - To France (The Mixes Part II)
DYEAR=1997
DGENRE=Dance
TTITLE0=To France (DJ Beam's Radio Mix)
TTITLE1=To France (De Donatis Remix)
TTITLE2=To France (DJ Beam's Club Mix)
EXTD=YEAR: 1997
EXTT0=
EXTT1=
EXTT2=
PLAYORDER=
